<svg width="512" height="512" viewBox="0 0 512 512" fill="none" xmlns="http://www.w3.org/2000/svg">
<circle cx="250" cy="250" r="250" fill="#FF6666"/>
<path d="M341.826 83L340.284 190.881V303.494C340.97 322.737 340.97 341.978 340.284 361.22C339.599 380.463 340.113 399.389 341.826 418H252.358L248.758 84.8927C250.815 84.2618 255.615 83.9463 263.156 83.9463C270.697 83.6309 279.439 83.4732 289.379 83.4732C299.663 83.4732 309.433 83.4732 318.688 83.4732C328.286 83.4732 335.999 83.3154 341.826 83ZM113.013 309.172C113.013 306.964 113.013 304.757 113.013 302.548C113.356 300.34 113.356 298.132 113.013 295.924C112.328 285.83 113.528 276.367 116.613 267.534C120.041 258.701 124.497 250.027 129.982 241.51C131.01 239.933 132.21 238.514 133.581 237.251C135.295 235.989 136.837 234.728 138.209 233.466C140.951 231.258 143.693 228.892 146.436 226.369C149.178 223.846 152.092 221.48 155.177 219.271C157.233 217.694 159.462 216.275 161.861 215.013C164.603 213.751 167.174 212.49 169.574 211.227C172.316 209.965 175.059 209.019 177.801 208.388C180.886 207.758 183.114 205.865 184.485 202.71C185.171 201.764 186.542 201.134 188.599 200.818C190.656 200.187 192.37 199.871 193.741 199.871C203.339 199.556 212.766 199.556 222.021 199.871C223.392 199.871 225.792 200.66 229.22 202.237C226.135 206.338 224.421 210.281 224.078 214.066C223.735 217.852 225.278 221.794 228.706 225.895C228.02 226.526 227.163 227.315 226.135 228.261C225.449 229.208 224.763 230.154 224.078 231.1C226.135 232.047 227.334 233.309 227.677 234.886C228.363 236.148 228.706 237.882 228.706 240.09V396.234C228.706 396.865 228.534 397.654 228.191 398.6C228.191 399.547 228.191 400.809 228.191 402.386C224.078 402.386 219.964 402.386 215.851 402.386C211.737 402.701 207.624 402.228 203.51 400.966C201.111 400.02 198.54 399.389 195.798 399.073C193.055 398.758 190.313 398.443 187.571 398.127C177.972 396.234 169.403 393.08 161.861 388.664C154.663 384.248 147.635 379.358 140.779 373.996C133.924 368.318 128.61 361.851 124.84 354.596C121.412 347.341 118.155 339.928 115.07 332.357C114.042 328.572 113.356 324.787 113.013 321.001C113.013 316.9 113.013 312.958 113.013 309.172Z" fill="white"/>
</svg>
