<?xml version="1.0" standalone="no"?>
<!DOCTYPE svg PUBLIC "-//W3C//DTD SVG 20010904//EN"
 "http://www.w3.org/TR/2001/REC-SVG-20010904/DTD/svg10.dtd">
<svg version="1.0" xmlns="http://www.w3.org/2000/svg"
 width="500.000000pt" height="500.000000pt" viewBox="0 0 500.000000 500.000000"
 preserveAspectRatio="xMidYMid meet">
<metadata>
Created by potrace 1.14, written by Peter Selinger 2001-2017
</metadata>
<g transform="translate(0.000000,500.000000) scale(0.100000,-0.100000)"
fill="#000000" stroke="none">
<path d="M2367 4934 c-1 -1 -36 -4 -77 -7 -73 -6 -202 -23 -244 -32 -12 -3
-32 -7 -46 -9 -65 -12 -179 -43 -265 -71 -340 -112 -659 -304 -916 -553 -431
-416 -688 -942 -745 -1522 -9 -89 -9 -409 0 -477 3 -27 8 -66 11 -88 87 -687
497 -1333 1090 -1717 194 -126 424 -233 615 -287 41 -12 91 -26 110 -31 19 -6
46 -12 60 -14 14 -3 50 -10 80 -16 152 -31 250 -39 490 -35 135 1 256 5 270 8
14 3 59 11 100 17 203 30 478 119 682 222 473 236 867 632 1098 1103 173 354
247 672 247 1065 1 186 -4 251 -27 400 -15 95 -18 109 -50 235 -185 717 -724
1337 -1413 1624 -189 78 -435 145 -612 166 -27 3 -72 8 -100 11 -48 6 -353 13
-358 8z m396 -158 c79 -13 167 -28 179 -30 7 -2 31 -6 53 -10 162 -31 402
-120 583 -217 82 -43 241 -144 290 -184 299 -240 494 -467 650 -757 78 -145
184 -422 206 -542 52 -274 58 -329 60 -515 4 -338 -57 -635 -195 -945 -177
-400 -478 -755 -839 -989 -133 -87 -124 -81 -245 -141 -239 -117 -483 -187
-765 -222 -131 -16 -438 -10 -567 11 -18 3 -50 8 -70 11 -75 11 -240 53 -330
83 -251 85 -485 212 -698 379 -105 83 -321 304 -402 413 -241 321 -392 691
-448 1099 -11 74 -14 461 -5 520 5 30 11 73 14 95 15 108 21 139 52 251 108
398 289 716 570 1006 151 156 292 269 469 375 160 95 306 161 495 221 83 26
124 36 230 57 41 8 213 34 250 38 47 5 427 -1 463 -7z"/>
<path d="M1277 4212 c-2 -4 -2 -13 -1 -19 1 -7 2 -29 3 -48 1 -28 5 -35 21
-35 20 0 20 -7 20 -530 0 -419 -3 -531 -12 -529 -39 5 -46 -1 -41 -33 7 -44
20 -68 38 -68 13 0 15 -110 15 -850 0 -802 -1 -850 -17 -851 -10 -1 -21 -1
-24 -1 -9 2 -17 -37 -16 -73 2 -25 7 -31 30 -33 l27 -3 0 -120 c0 -111 -1
-119 -19 -119 -21 0 -28 -15 -33 -70 -3 -32 -1 -34 36 -42 21 -5 168 -7 325
-6 246 3 286 5 287 18 1 8 2 20 3 26 0 6 34 22 74 34 122 39 260 112 345 184
43 36 62 39 62 10 0 -50 67 -138 147 -193 69 -47 175 -67 223 -41 31 17 53 75
45 119 -23 127 -158 226 -313 230 l-34 1 30 37 c16 21 34 47 40 58 9 17 45 33
117 50 84 21 300 110 413 171 45 24 86 44 90 44 5 0 14 -15 20 -34 20 -55 82
-142 116 -162 73 -45 225 -54 275 -17 93 70 -44 238 -221 271 -25 5 -57 8 -72
6 -22 -2 -17 4 31 40 138 102 271 249 356 393 63 109 137 323 137 399 l0 28
43 -41 c65 -64 146 -97 233 -96 114 2 190 45 198 112 5 46 -29 90 -96 125
-100 51 -214 41 -319 -29 -21 -14 -40 -25 -41 -25 -2 0 -3 62 -3 137 0 128
-10 278 -21 294 -2 4 -6 24 -10 45 -8 49 -41 156 -66 214 -86 200 -201 358
-358 490 -29 25 -58 50 -65 57 -25 24 -183 122 -268 167 -188 98 -512 206
-722 240 -16 2 -55 9 -85 15 -71 13 -112 19 -185 27 -91 9 -106 12 -120 24
-14 12 -632 14 -638 2z m778 -137 c123 -15 378 -67 482 -98 l43 -13 -48 -13
c-68 -20 -125 -56 -186 -117 -62 -63 -97 -129 -104 -196 -4 -43 -2 -50 27 -77
17 -16 44 -31 60 -33 36 -5 139 15 185 37 93 44 172 155 196 276 16 78 18 83
33 72 6 -5 35 -18 62 -28 187 -67 451 -239 580 -377 67 -72 180 -229 154 -212
-8 4 -29 18 -47 30 -71 49 -219 78 -302 61 -116 -24 -156 -102 -95 -184 93
-125 210 -172 362 -146 40 6 95 23 122 36 l50 23 15 -40 c14 -37 31 -103 42
-163 2 -13 7 -35 10 -50 14 -65 13 -339 -2 -423 -82 -460 -391 -773 -973 -986
-80 -30 -93 -32 -88 -17 3 10 19 57 36 104 32 93 58 208 67 297 3 31 7 66 9
77 2 11 4 46 4 78 l1 58 28 -19 c38 -27 115 -52 161 -52 55 0 168 37 218 72
82 56 94 119 36 178 -93 92 -269 69 -392 -51 l-48 -47 -7 61 c-12 108 -18 139
-41 216 -45 148 -103 250 -199 349 -130 136 -334 238 -548 276 -21 4 -38 12
-39 19 -3 33 -4 1023 -2 1029 4 7 30 5 138 -7z m-30 -1169 c50 -14 114 -35
143 -48 l54 -24 -79 0 c-71 0 -87 -3 -149 -34 -38 -19 -71 -36 -74 -38 -4 -1
-5 155 -1 166 2 5 18 1 106 -22z m311 -142 c262 -184 361 -544 277 -1004 -26
-145 -96 -338 -136 -376 -25 -24 -402 -95 -516 -98 l-45 -1 0 620 -1 621 57 0
c68 1 156 40 202 90 38 42 65 107 65 161 1 51 7 50 97 -13z m18 -1556 c-63
-68 -157 -139 -241 -181 -67 -34 -192 -78 -196 -69 -3 6 -2 178 2 201 0 4 27
11 59 15 31 4 71 9 87 11 17 3 44 7 60 10 17 2 47 7 67 10 21 4 66 12 100 20
92 20 95 19 62 -17z"/>
</g>
</svg>
